<svg height="140.67564437627877" width="395.52">
  <g>
    <svg viewBox="0 0 687.2368840807108 244.43135999999998" height="140.67564437627877" width="395.52">
      <g transform="matrix(1,0,0,1,0,82.15610250740374)">
        <svg viewBox="0 0 395.52 80.1191549851925" height="80.1191549851925" width="395.52">
          <g id="textblocktransform">
            <svg viewBox="0 0 395.52 80.1191549851925" height="80.1191549851925" width="395.52" id="textblock">
              <g>
                <svg viewBox="0 0 395.52 80.1191549851925" height="80.1191549851925" width="395.52">
                  <g transform="matrix(1,0,0,1,0,0)">
                    <svg width="395.52" viewBox="0.4000000059604645 -37.79999923706055 253.23001098632812 51.29999923706055" height="80.1191549851925" data-palette-color="url(#d5f52a99-75c2-4011-acba-5ca90df25311)"></svg>
                  </g>
                </svg>
              </g>
            </svg>
          </g>
        </svg>
      </g>
      <g transform="matrix(1,0,0,1,442.8055240807107,0)">
        <svg viewBox="0 0 244.43135999999998 244.43135999999998" height="244.43135999999998" width="244.43135999999998">
          <g>
            <svg viewBox="0 0 244.43135999999998 244.43135999999998" height="244.43135999999998" width="244.43135999999998">
              <g transform="matrix(1,0,0,1,71.0882832967632,64.60265593644992)">
                <svg viewBox="0 0 102.2547934064736 115.22604812710014" height="115.22604812710014" width="102.2547934064736">
                  <g>
                    <svg xmlns="http://www.w3.org/2000/svg" xmlns:xlink="http://www.w3.org/1999/xlink" version="1.1" x="0" y="0" viewBox="10.166999816894531 5 79.83300018310547 89.95999908447266" enable-background="new 0 0 100 100" xml:space="preserve" height="115.22604812710014" width="102.2547934064736" class="icon-b-0" data-fill-palette-color="accent" id="b-0"></svg>
                  </g>
                </svg>
              </g>
              <g id="text-0"></g>
              <g id="text-1"></g>
            </svg>
          </g>
        </svg>
      </g>
    </svg>
  </g>
  <defs></defs>
  <mask id="3e449a81-db01-4fbc-a0bc-6c792c6ad3b4">
    <g id="SvgjsG1564">
      <svg viewBox="0 0 395.52 140.67564437627877" height="140.67564437627877" width="395.52">
        <g>
          <svg viewBox="0 0 687.2368840807108 244.43135999999998" height="140.67564437627877" width="395.52">
            <g transform="matrix(1,0,0,1,0,82.15610250740374)">
              <svg viewBox="0 0 395.52 80.1191549851925" height="80.1191549851925" width="395.52">
                <g id="SvgjsG1563">
                  <svg viewBox="0 0 395.52 80.1191549851925" height="80.1191549851925" width="395.52" id="SvgjsSvg1562">
                    <g>
                      <svg viewBox="0 0 395.52 80.1191549851925" height="80.1191549851925" width="395.52">
                        <g transform="matrix(1,0,0,1,0,0)">
                          <svg width="395.52" viewBox="0.4000000059604645 -37.79999923706055 253.23001098632812 51.29999923706055" height="80.1191549851925" data-palette-color="url(#d5f52a99-75c2-4011-acba-5ca90df25311)">
                            <path d="M7 0L0.9 0.25 1-1.5 4.3-2.5 4.55-7.75 4.75-18.7 4.45-29.85 4.2-34.85 0.65-34.7 0.4-36.45 7.3-37.8 9.8-37.25 9.45-30.65 9.15-13.15 9.3-8.3 9.7-2.5 13.35-1.5 13.1 0.25 7 0ZM24.25-24.95L23.9-18.15 23.6-13.15 23.75-8.3 23.95-2.5 27.6-1.5 27.35 0.25 21.45 0 15.35 0.25 15.45-1.5 18.75-2.5 19-7.75 18.9-17.35 18.65-22.55 15.1-22.4 14.85-24.15 21.75-25.5 24.25-24.95ZM17.2-34.4L18.35-36.25 20.6-37.3 22.9-36.55 23.95-33.95 22.6-31.85 20.35-30.95 18.25-32.25 17.2-34.4ZM37.3-37.25L36.7-22.85 37.05-22.5 42.25-25.35 47.7-25.5 53-21.45 55.09-13.1 53.59-5.65 50-1.1 42.8 1 33.34-0.25 31.59-2 32-18.5 31.95-29.85 31.7-34.85 28.14-34.7 27.89-36.45 34.8-37.8 37.3-37.25ZM36.7-20.1L36.59-7.65 37-3 43.5-1.55 48.45-4.65 49.9-10.15 49.7-16.75 46.14-21.9 43.05-22.65 36.7-20.1ZM67.34-24.95L67.14-20.9 67.34-20.9 70.44-24.45 73.84-25.95 77.59-25 76.74-17.55 74.99-17.9 73.74-23.05 70.49-22 66.94-17.85 66.69-13.15 66.84-8.3 67.04-2.5 72.04-1.5 71.79 0.25 64.54 0 58.44 0.25 58.54-1.5 61.84-2.5 62.09-7.75 61.99-17.35 61.74-22.55 58.19-22.4 57.94-24.15 64.84-25.5 67.34-24.95ZM98.99-19.8L99.04-9.1 99.39-2.05 102.84-1.55 102.49 0.1 95.54 0.7 94.89-2.25 94.64-2.25 89.69 0.7 84.49 0.7 80.99-1.85 79.94-6.75 82.14-10.65 88.14-13.25 94.74-13.5 94.54-19.75 93.59-22.85 89.54-24 84.69-22.85 84.54-17.55 82.59-17.15 81.29-24 87.04-25.7 93.49-26 97.39-24.1 98.99-19.8ZM84.79-6.85L86.14-2.8 89.89-1.85 94.94-4.75 94.74-11.5 90.39-11.5 86.54-9.95 84.79-6.85ZM113.69-24.95L113.49-20.9 113.69-20.9 116.79-24.45 120.19-25.95 123.94-25 123.09-17.55 121.34-17.9 120.09-23.05 116.84-22 113.29-17.85 113.04-13.15 113.19-8.3 113.39-2.5 118.39-1.5 118.14 0.25 110.89 0 104.79 0.25 104.89-1.5 108.19-2.5 108.44-7.75 108.34-17.35 108.09-22.55 104.54-22.4 104.29-24.15 111.19-25.5 113.69-24.95ZM133.13 13L130.63 13.5 129.09 11.25 127.59 7.15 129.49 6.45 132.28 10.6 134.84 8.15 138.34 0.15 130.59-19.7 128.84-22.75 125.28-23.5 125.53-25.25 131.63-25 137.59-25.25 137.49-23.5 134.59-22.65 135.34-19.55 138.03-12.65 140.78-4.6 140.94-4.6 143.44-12.45 145.99-19.6 146.49-22.8 143.69-23.5 143.94-25.25 149.28-25 153.53-25.25 153.44-23.5 150.38-22.6 148.63-18.85 141.19 1.05 136.88 9.3 133.13 13ZM186.18 1L184.68 1.5 183.83 0 171.78-15.35 164.08-25.05 162.08-28.85 161.98-28.85 162.13-24.6 162.13-6.6 162.18-2.35 165.98-1.45 165.73 0.5 160.48 0 155.38 0.5 155.48-1.5 158.88-2.3 159.28-6.6 159.63-32.5 155.53-33.5 155.78-35.5 161.88-35 164.38-35 165.78-31.9 179.03-14.25 183.23-7.45 183.33-7.45 183.28-12.25 183.13-28.7 182.88-32.65 179.23-33.5 179.48-35.5 184.48-35 189.98-35.5 189.88-33.5 186.03-32.65 185.78-28.85 186.18 1ZM211.88-17L202.13-16.5 202.53-1.9 216.98-2.25 218.48-8.9 220.23-8.45 220.43-2.25 220.78 0.5 214.73 0 200.03 0 193.18 0.5 193.28-1.25 197.28-2.5 197.78-17.85 197.28-32.5 193.23-33.7 193.48-35.45 199.78-35 214.18-35 219.03-35.5 218.58-33.05 218.48-26.5 216.68-26.1 215.38-32.75 202.53-33.15 202.13-19.1 211.88-19.4 212.83-24.15 214.83-23.5 214.33-17.8 214.83-11.75 212.83-12.05 211.88-17ZM223.03-35.5L228.88-35 247.78-35 253.63-35.5 252.88-32.05 252.58-25.75 250.28-25.6 249.48-32.75 240.73-33.2 240.28-16.4 240.58-7 240.83-2.5 244.68-1.25 244.33 0.5 238.23 0 231.38 0.5 231.48-1.25 235.58-2.45 235.63-7.6 235.98-21.8 235.48-33.2 227.18-32.75 226.38-25.6 224.08-25.75 223.78-32.05 223.03-35.5Z" opacity="1" transform="matrix(1,0,0,1,0,0)" fill="white" class="wordmark-text-0" id="SvgjsPath1561"></path>
                          </svg>
                        </g>
                      </svg>
                    </g>
                  </svg>
                </g>
              </svg>
            </g>
            <g transform="matrix(1,0,0,1,442.8055240807107,0)">
              <svg viewBox="0 0 244.43135999999998 244.43135999999998" height="244.43135999999998" width="244.43135999999998">
                <g>
                  <svg viewBox="0 0 244.43135999999998 244.43135999999998" height="244.43135999999998" width="244.43135999999998">
                    <g transform="matrix(1,0,0,1,71.0882832967632,64.60265593644992)">
                      <svg viewBox="0 0 102.2547934064736 115.22604812710014" height="115.22604812710014" width="102.2547934064736">
                        <g>
                          <svg xmlns="http://www.w3.org/2000/svg" xmlns:xlink="http://www.w3.org/1999/xlink" version="1.1" x="0" y="0" viewBox="10.166999816894531 5 79.83300018310547 89.95999908447266" enable-background="new 0 0 100 100" xml:space="preserve" height="115.22604812710014" width="102.2547934064736" class="icon-b-0" data-fill-palette-color="accent" id="SvgjsSvg1560"><path d="M50.083 5L10.167 32.393V94.96H90V32.393zM87.81 92.77H12.356V33.546L50.083 7.656 87.81 33.546zM40.441 36.252H22.426C21.821 36.252 21.331 36.742 21.331 37.347V77.436C21.331 78.041 21.821 78.531 22.426 78.531H22.854V82.13C22.854 82.735 23.344 83.225 23.949 83.225H45.046A5.164 5.164 0 0 0 50.084 87.286 5.16 5.16 0 0 0 55.12 83.225H76.219C76.824 83.225 77.314 82.735 77.314 82.13V78.531H77.742C78.347 78.531 78.837 78.041 78.837 77.436V37.346C78.837 36.741 78.347 36.251 77.742 36.251H59.725C55.471 36.251 51.82 38.757 50.083 42.353 48.346 38.758 44.696 36.252 40.441 36.252M76.646 76.341H59.725C57.674 76.341 55.518 76.351 53.675 76.79A8.52 8.52 0 0 1 59.725 74.273H76.646zM23.521 38.442H40.442C45.155 38.442 48.989 42.276 48.989 46.989V76.329A10.73 10.73 0 0 0 40.442 72.084H23.521zM23.521 76.341V74.273H40.442C42.804 74.273 44.943 75.236 46.492 76.79 44.649 76.351 42.493 76.341 40.442 76.341zM75.123 81.035H54.142C53.537 81.035 53.047 81.525 53.047 82.13A2.97 2.97 0 0 1 50.083 85.096 2.97 2.97 0 0 1 47.117 82.13C47.117 81.525 46.627 81.035 46.022 81.035H25.043V78.531H40.441C45.715 78.531 48.268 78.83 48.851 81.462 48.923 81.907 48.988 82.355 48.988 82.82A1.095 1.095 0 1 0 51.178 82.82C51.178 82.355 51.243 81.907 51.315 81.462 51.897 78.83 54.451 78.531 59.725 78.531H75.123zM59.725 38.442H76.646V72.084H59.725A10.73 10.73 0 0 0 51.178 76.329V46.988C51.178 42.276 55.012 38.442 59.725 38.442M56.774 43.024C56.774 42.419 57.264 41.929 57.869 41.929H72.617A1.095 1.095 0 1 1 72.617 44.119H57.869C57.264 44.119 56.774 43.629 56.774 43.024M56.774 47.131C56.774 46.526 57.264 46.036 57.869 46.036H72.617A1.095 1.095 0 1 1 72.617 48.226H57.869C57.264 48.226 56.774 47.736 56.774 47.131M56.774 51.239C56.774 50.634 57.264 50.144 57.869 50.144H72.617A1.095 1.095 0 1 1 72.617 52.334H57.869C57.264 52.334 56.774 51.844 56.774 51.239M56.774 55.345C56.774 54.74 57.264 54.25 57.869 54.25H72.617A1.095 1.095 0 1 1 72.617 56.44H57.869A1.094 1.094 0 0 1 56.774 55.345M56.774 59.453C56.774 58.848 57.264 58.358 57.869 58.358H72.617A1.095 1.095 0 1 1 72.617 60.548H57.869C57.264 60.548 56.774 60.058 56.774 59.453M56.774 63.56C56.774 62.955 57.264 62.465 57.869 62.465H72.617A1.095 1.095 0 1 1 72.617 64.655H57.869C57.264 64.655 56.774 64.165 56.774 63.56M56.774 67.668C56.774 67.063 57.264 66.573 57.869 66.573H72.617A1.095 1.095 0 1 1 72.617 68.763H57.869C57.264 68.763 56.774 68.273 56.774 67.668M26.39 43.024C26.39 42.419 26.88 41.929 27.485 41.929H42.233A1.095 1.095 0 1 1 42.233 44.119H27.485C26.88 44.119 26.39 43.629 26.39 43.024M26.39 47.131C26.39 46.526 26.88 46.036 27.485 46.036H42.233A1.095 1.095 0 1 1 42.233 48.226H27.485C26.88 48.226 26.39 47.736 26.39 47.131M26.39 51.239C26.39 50.634 26.88 50.144 27.485 50.144H42.233A1.095 1.095 0 1 1 42.233 52.334H27.485C26.88 52.334 26.39 51.844 26.39 51.239M26.39 55.345C26.39 54.74 26.88 54.25 27.485 54.25H42.233A1.095 1.095 0 1 1 42.233 56.44H27.485A1.094 1.094 0 0 1 26.39 55.345M26.39 59.453C26.39 58.848 26.88 58.358 27.485 58.358H42.233A1.095 1.095 0 1 1 42.233 60.548H27.485C26.88 60.548 26.39 60.058 26.39 59.453M26.39 63.56C26.39 62.955 26.88 62.465 27.485 62.465H42.233A1.095 1.095 0 1 1 42.233 64.655H27.485C26.88 64.655 26.39 64.165 26.39 63.56M26.39 67.668C26.39 67.063 26.88 66.573 27.485 66.573H42.233A1.095 1.095 0 1 1 42.233 68.763H27.485C26.88 68.763 26.39 68.273 26.39 67.668" fill="black"></path></svg>
                        </g>
                      </svg>
                    </g>
                    <g id="SvgjsG1559">
                      <path d="M25 88.623l-0.977 3.768-1.051-0.382 0-2.198-3.159-1.126-6.641-2.152-6.867-1.887-3.09-0.771-0.572 2.192-1.115-0.172 0.457-4.457 0.797-1.425 3.963 1.432 10.628 3.435 2.987 0.803 3.615 0.826 1.285-2.037 1.022 0.477z" fill="black"></path>
                      <path d="M20.445 59.458l3.693 2.285 2.698 1.714 2.756 1.404 3.302 1.672 1.68-1.727 0.902 0.679-1.954 3.215-1.737 3.483-0.949-0.591 0.456-2.151-2.857-1.756-5.391-2.902-2.986-1.462-1.004 2.03-1.056-0.399 1.371-4.265zM12.991 60.486l-0.679-1.206 0.107-1.58 1.132-1.061 1.772 0.213 0.76 1.41-0.195 1.532-1.369 0.771z" fill="black"></path>
                      <path d="M29.31 34.453l6.409 6.588 0.318-0.002 0.957-3.665 2.32-2.582 4.206-0.687 4.786 2.689 2.796 3.965 0.531 3.66-2.19 4.257-4.726 3.833-1.571 0.036-7.469-7.412-5.285-4.961-2.42-2.071-1.491 1.706-0.921-0.652 2.4-3.783zM36.994 42.247l5.724 5.514 2.329 1.847 3.524-2.375 0.733-3.646-1.912-3.086-3.153-2.805-3.938-0.611-1.705 1.105z" fill="black"></path>
                      <path d="M62.194 17.337l1.218 2.281 0.111-0.066 0.528-2.957 1.372-1.939 2.365-0.71 1.971 4.352-1.07 0.387-2.377-2.412-1.43 1.649-0.581 3.43 1.407 2.656 1.676 2.599 2.014 3.106 3.065-1.095 0.437 1.04-4.049 2.243-3.252 2.138-0.524-0.989 1.476-1.629-1.587-2.955-3.201-5.219-1.845-2.765-1.889 1.25-0.712-0.876 3.33-2.997z" fill="black"></path>
                      <path d="M96.691 6.854l1.901 6.561 1.452 4.262 2.198-0.294 0.076 1.067-4.161 1.59-0.91-1.701-0.153 0.044-2.523 2.678-3.194 0.91-2.584-0.953-1.51-2.825 0.672-2.774 3.226-2.65 4.003-1.307-1.215-3.79-1.119-1.745-2.693 0.011-2.773 1.547 0.84 3.275-1.128 0.591-1.992-3.973 3.231-2.051 3.898-1.308 2.728 0.477zM90.249 17.285l1.533 2.249 2.468-0.071 2.589-2.666-1.305-4.107-2.666 0.759-2.089 1.622z" fill="black"></path>
                      <path d="M121.155 0.7l-0.091 2.584 0.129-0.002 1.941-2.293 2.159-0.989 2.402 0.573-0.478 4.754-1.12-0.203-0.846-3.279-2.064 0.709-2.224 2.676-0.115 3.003 0.145 3.089 0.185 3.697 3.2 0.591-0.143 1.119-4.629-0.091-3.886 0.217 0.044-1.117 2.094-0.67 0.11-3.352-0.151-6.121-0.208-3.317-2.262 0.133-0.176-1.114 4.384-0.923z" fill="black"></path>
                      <path d="M143.312 27.335l-1.623-0.107-0.589-1.646-0.232-2.779 1.28-0.109 1.035 3.016 1.977-1.089 3.483-4.337-1.478-13.515-0.572-2.168-2.06-1.051 0.445-1.037 3.722 1.169 3.7 0.833-0.349 1.063-1.93 0.037-0.052 2.03 0.517 4.705 0.358 5.415 0.096 0.026 2.834-4.42 2.768-3.984 0.84-1.89-1.618-0.891 0.445-1.037 3.26 1.045 2.66 0.552-0.358 1.06-2.025 0.043-1.702 2.019-7.887 11.019-4.028 4.367z" fill="black"></path>
                      <path d="M185.819 39.25l-0.969-0.249 0.062-1.101-1.112-12.399-0.745-7.857 0.255-2.735-0.059-0.039-1.394 2.329-6.258 9.632-1.452 2.291 1.722 1.796-0.813 0.959-2.636-2.093-2.899-1.504 0.754-1.032 2.091 0.753 1.711-2.159 9.186-13.735-1.843-1.958 0.829-0.983 3.087 2.386 1.338 0.869-0.332 2.139 0.958 14.047-0.114 5.098 0.05 0.033 1.642-2.584 5.632-8.85 1.24-2.202-1.655-1.717 0.83-0.984 2.501 2.006 3.117 1.645-0.754 1.032-2.35-0.885-1.454 1.945z" fill="black"></path>
                      <path d="M213.74 52.229l-4.099-4.691-7.157 5.964 5.871 7.104 3.922-1.869 0.472 1.05-3.031 2.55-1.237 1.266-2.136-3.229-5.804-7.373-2.952-3.234 0.915-0.643 2.205 1.512 7.891-5.806 7.144-6.03-0.994-2.504 0.976-0.566 2.258 3.336 5.681 7.216 2.168 2.239-1.408 0.741-3.326 2.53-0.905-0.747 2.817-3.272-4.866-6.6-7.203 5.341 3.997 4.772 2.758-1.397 0.46 1.262-3.049 1.994-2.834 2.638-0.641-1.12z" fill="black"></path>
                      <path d="M236.228 67.122l0.978 3.623 4.122 11.328 1.575 3.396-2.234 0.303-3.841 1.196-0.586-1.346 4.105-2.046-1.634-5.336-10.172 3.393-5.566 2.227-2.644 1.132 0.089 2.578-1.124 0.176-1.03-3.764-1.793-3.995 1.069-0.325 1.615 2.192 3.093-1.094 8.596-2.883 6.721-2.786-2.082-4.876-4.456 1.08-0.417-1.408 3.708-1.561z" fill="black"></path>
                      <path d="M9.17 154.798l-1.347-3.831 1.136-0.274 1.279 1.903 3.387-0.857 7-2.002 7.037-2.357 3.135-1.134-0.785-2.231 1.06-0.491 2.197 4.125 0.143 1.697-4.275 1.056-11.188 3.207-3.051 1.035-3.612 1.385 0.069 2.512-1.162 0.188z" fill="black"></path>
                      <path d="M34.321 171.195l-4.07 1.971-3.016 1.426-2.776 1.636-3.321 1.97 0.584 2.454-1.104 0.412-1.741-3.526-2.1-3.476 1.057-0.5 1.64 1.602 3.142-1.53 5.561-3.13 2.957-1.803-1.224-2.024 0.942-0.71 2.992 3.59zM37.584 164.06l1.44 0.075 1.336 0.984 0.297 1.578-1.177 1.441-1.656-0.115-1.252-1.019 0.089-1.641z" fill="black"></path>
                      <path d="M52.21 181.64l-7.256 6.272-0.003 0.331 3.75 1.224 2.552 2.569 0.455 4.416-3.091 4.821-4.294 2.667-3.854 0.325-4.295-2.532-3.692-5.151 0.044-1.642 8.184-7.322 5.473-5.198 2.317-2.397-1.691-1.654 0.727-0.916 3.802 2.735zM43.625 189.162l-6.079 5.63-2.075 2.306 2.259 3.816 3.757 0.984 3.329-1.801 3.101-3.106 0.888-4.064-1.05-1.846z" fill="black"></path>
                      <path d="M70.005 207.202l-1.505 2.235 0.11 0.068 2.99-0.952 2.453 0.32 1.806 1.829-3.054 3.944-0.879-0.801 1.07-3.362-2.218-0.516-3.447 1.129-1.759 2.595-1.583 2.806-1.889 3.368 2.502 2.297-0.75 0.91-4.039-2.646-3.559-1.958 0.664-0.962 2.223 0.566 1.953-2.897 3.247-5.494 1.657-3.042-2.073-1.139 0.46-1.086 4.388 1.61z" fill="black"></path>
                      <path d="M98.875 222.625l-1.961 6.844-1.089 4.564 2.117 0.969-0.537 0.986-4.544-0.907 0.128-2.009-0.153-0.044-3.718 0.963-3.313-0.964-1.766-2.279 0.241-3.326 2.132-2.08 4.314-0.551 4.257 1.073 1.037-4.029-0.026-2.157-2.38-1.492-3.307-0.163-1.079 3.352-1.32-0.104 0.441-4.618 3.991-0.012 4.172 1.007 2.138 1.931zM87.401 228.258l0.11 2.836 2.215 1.309 3.767-0.919 1.119-4.347-2.776-0.808-2.747 0.27z" fill="black"></path>
                      <path d="M120.702 221.788l-0.187 2.688 0.129 0.003 2.115-2.318 2.284-0.948 2.479 0.682-0.676 4.942-1.161-0.254-0.753-3.447-2.179 0.661-2.422 2.7-0.227 3.127 0.03 3.222 0.046 3.86 3.315 0.74-0.195 1.163-4.821-0.274-4.061 0.082 0.095-1.165 2.208-0.621 0.245-3.485 0.068-6.381-0.084-3.463-2.365 0.049-0.144-1.17 4.605-0.798z" fill="black"></path>
                      <path d="M150.961 243.691l-1.528 0.74-1.372-1.187-1.654-2.38 1.107-0.774 2.493 2.202 1.229-2.002 0.909-5.741-8.33-11.467-1.644-1.672-2.412 0.116-0.129-1.162 3.967-0.873 3.789-1.157 0.225 1.137-1.718 1.037 1.005 1.871 2.898 3.982 3.121 4.718 0.096-0.025 0.291-5.466 0.435-5.031-0.222-2.147-1.912 0.016-0.139-1.16 3.484-0.746 2.699-0.872 0.226 1.137-1.805 1.101-0.497 2.707-1.444 14.055-1.38 6.03z" fill="black"></path>
                      <path d="M195.296 214.385l-0.67 0.821-1.008-0.539-12.258-4.275-7.795-2.668-2.477-1.41-0.059 0.038 1.606 2.323 6.458 10.084 1.556 2.355 2.447-0.857 0.556 1.183-3.116 1.605-2.678 2.106-0.656-1.155 1.621-1.666-1.325-2.549-9.091-14.639-2.661 0.911-0.572-1.208 3.595-1.912 1.394-0.892 1.902 1.232 13.752 5.13 4.792 2.306 0.051-0.032-1.746-2.671-5.983-9.157-1.563-2.126-2.346 0.828-0.573-1.208 2.974-1.513 2.904-2.251 0.656 1.154-1.843 1.856 1.223 2.224z" fill="black"></path>
                      <path d="M209.158 183.02l-3.777 5.277 7.761 5.843 5.805-7.666-2.844-3.536 0.96-0.727 3.311 2.469 1.577 0.948-2.765 2.948-6.083 7.647-2.579 3.771-0.868-0.767 1.002-2.605-7.78-6.621-7.835-5.799-2.3 1.61-0.807-0.859 2.841-3.091 5.965-7.499 1.748-2.725 1.085 1.246 3.367 2.767-0.534 1.104-3.999-2.085-5.529 6.534 7.151 6.019 3.878-5.197-2.082-2.459 1.167-0.779 2.768 2.623 3.35 2.244-0.988 0.921z" fill="black"></path>
                      <path d="M208.034 161.848l1.656-3.545 4.343-11.789 1.035-3.763 1.98 1.261 3.861 1.634-0.434 1.466-4.646-1.148-2.293 5.361 10.385 4.144 5.935 1.974 2.866 0.875 1.668-2.106 1.006 0.615-1.711 3.694-1.267 4.39-1.061-0.465 0.193-2.83-3.205-1.223-8.782-3.479-7.234-2.314-1.628 5.287 4.28 2.14-0.624 1.406-3.999-1.26z" fill="black"></path>
                      <path d="M3.086 119.202c0-5.087 4.123-9.21 9.21-9.21 5.087 0 9.21 4.123 9.21 9.21 0 5.087-4.123 9.21-9.21 9.21-5.087 0-9.21-4.123-9.21-9.21z" fill="black"></path>
                      <path d="M223.689 119.202c0-5.087 4.123-9.21 9.21-9.21 5.087 0 9.21 4.123 9.21 9.21 0 5.087-4.123 9.21-9.21 9.21-5.087 0-9.21-4.123-9.21-9.21z" fill="black"></path>
                    </g>
                    <g id="SvgjsG1558"></g>
                  </svg>
                </g>
              </svg>
            </g>
          </svg>
        </g>
        <defs>
          <mask></mask>
        </defs>
      </svg>
      <rect width="395.52" height="140.67564437627877" fill="black" stroke="none" visibility="hidden"></rect>
    </g>
  </mask>
  <linearGradient x1="0.054" x2="0.941" y1="0.5" y2="0.5" id="d5f52a99-75c2-4011-acba-5ca90df25311">
    <stop stop-color="#8c8c8c" offset="0"></stop>
    <stop stop-color="#e3e4e5" offset="0.498"></stop>
    <stop stop-color="#8c8c8c" offset="1"></stop>
  </linearGradient>
  <rect width="395.5199890136719" height="140.67564392089844" fill="url(#d5f52a99-75c2-4011-acba-5ca90df25311)" mask="url(#3e449a81-db01-4fbc-a0bc-6c792c6ad3b4)" data-fill-palette-color="primary"></rect>
  <mask id="f5dba657-f145-45fa-91a8-4d92e055016f">
    <g id="SvgjsG1591">
      <svg viewBox="0 0 395.52 140.67564437627877" height="140.67564437627877" width="395.52">
        <g>
          <svg viewBox="0 0 687.2368840807108 244.43135999999998" height="140.67564437627877" width="395.52">
            <g transform="matrix(1,0,0,1,0,82.15610250740374)">
              <svg viewBox="0 0 395.52 80.1191549851925" height="80.1191549851925" width="395.52">
                <g id="SvgjsG1590">
                  <svg viewBox="0 0 395.52 80.1191549851925" height="80.1191549851925" width="395.52" id="SvgjsSvg1589">
                    <g>
                      <svg viewBox="0 0 395.52 80.1191549851925" height="80.1191549851925" width="395.52">
                        <g transform="matrix(1,0,0,1,0,0)">
                          <svg width="395.52" viewBox="0.4000000059604645 -37.79999923706055 253.23001098632812 51.29999923706055" height="80.1191549851925" data-palette-color="url(#d5f52a99-75c2-4011-acba-5ca90df25311)"></svg>
                        </g>
                      </svg>
                    </g>
                  </svg>
                </g>
              </svg>
            </g>
            <g transform="matrix(1,0,0,1,442.8055240807107,0)">
              <svg viewBox="0 0 244.43135999999998 244.43135999999998" height="244.43135999999998" width="244.43135999999998">
                <g>
                  <svg viewBox="0 0 244.43135999999998 244.43135999999998" height="244.43135999999998" width="244.43135999999998">
                    <g transform="matrix(1,0,0,1,71.0882832967632,64.60265593644992)">
                      <svg viewBox="0 0 102.2547934064736 115.22604812710014" height="115.22604812710014" width="102.2547934064736">
                        <g>
                          <svg xmlns="http://www.w3.org/2000/svg" xmlns:xlink="http://www.w3.org/1999/xlink" version="1.1" x="0" y="0" viewBox="10.166999816894531 5 79.83300018310547 89.95999908447266" enable-background="new 0 0 100 100" xml:space="preserve" height="115.22604812710014" width="102.2547934064736" class="icon-b-0" data-fill-palette-color="accent" id="SvgjsSvg1588"><path d="M50.083 5L10.167 32.393V94.96H90V32.393zM87.81 92.77H12.356V33.546L50.083 7.656 87.81 33.546zM40.441 36.252H22.426C21.821 36.252 21.331 36.742 21.331 37.347V77.436C21.331 78.041 21.821 78.531 22.426 78.531H22.854V82.13C22.854 82.735 23.344 83.225 23.949 83.225H45.046A5.164 5.164 0 0 0 50.084 87.286 5.16 5.16 0 0 0 55.12 83.225H76.219C76.824 83.225 77.314 82.735 77.314 82.13V78.531H77.742C78.347 78.531 78.837 78.041 78.837 77.436V37.346C78.837 36.741 78.347 36.251 77.742 36.251H59.725C55.471 36.251 51.82 38.757 50.083 42.353 48.346 38.758 44.696 36.252 40.441 36.252M76.646 76.341H59.725C57.674 76.341 55.518 76.351 53.675 76.79A8.52 8.52 0 0 1 59.725 74.273H76.646zM23.521 38.442H40.442C45.155 38.442 48.989 42.276 48.989 46.989V76.329A10.73 10.73 0 0 0 40.442 72.084H23.521zM23.521 76.341V74.273H40.442C42.804 74.273 44.943 75.236 46.492 76.79 44.649 76.351 42.493 76.341 40.442 76.341zM75.123 81.035H54.142C53.537 81.035 53.047 81.525 53.047 82.13A2.97 2.97 0 0 1 50.083 85.096 2.97 2.97 0 0 1 47.117 82.13C47.117 81.525 46.627 81.035 46.022 81.035H25.043V78.531H40.441C45.715 78.531 48.268 78.83 48.851 81.462 48.923 81.907 48.988 82.355 48.988 82.82A1.095 1.095 0 1 0 51.178 82.82C51.178 82.355 51.243 81.907 51.315 81.462 51.897 78.83 54.451 78.531 59.725 78.531H75.123zM59.725 38.442H76.646V72.084H59.725A10.73 10.73 0 0 0 51.178 76.329V46.988C51.178 42.276 55.012 38.442 59.725 38.442M56.774 43.024C56.774 42.419 57.264 41.929 57.869 41.929H72.617A1.095 1.095 0 1 1 72.617 44.119H57.869C57.264 44.119 56.774 43.629 56.774 43.024M56.774 47.131C56.774 46.526 57.264 46.036 57.869 46.036H72.617A1.095 1.095 0 1 1 72.617 48.226H57.869C57.264 48.226 56.774 47.736 56.774 47.131M56.774 51.239C56.774 50.634 57.264 50.144 57.869 50.144H72.617A1.095 1.095 0 1 1 72.617 52.334H57.869C57.264 52.334 56.774 51.844 56.774 51.239M56.774 55.345C56.774 54.74 57.264 54.25 57.869 54.25H72.617A1.095 1.095 0 1 1 72.617 56.44H57.869A1.094 1.094 0 0 1 56.774 55.345M56.774 59.453C56.774 58.848 57.264 58.358 57.869 58.358H72.617A1.095 1.095 0 1 1 72.617 60.548H57.869C57.264 60.548 56.774 60.058 56.774 59.453M56.774 63.56C56.774 62.955 57.264 62.465 57.869 62.465H72.617A1.095 1.095 0 1 1 72.617 64.655H57.869C57.264 64.655 56.774 64.165 56.774 63.56M56.774 67.668C56.774 67.063 57.264 66.573 57.869 66.573H72.617A1.095 1.095 0 1 1 72.617 68.763H57.869C57.264 68.763 56.774 68.273 56.774 67.668M26.39 43.024C26.39 42.419 26.88 41.929 27.485 41.929H42.233A1.095 1.095 0 1 1 42.233 44.119H27.485C26.88 44.119 26.39 43.629 26.39 43.024M26.39 47.131C26.39 46.526 26.88 46.036 27.485 46.036H42.233A1.095 1.095 0 1 1 42.233 48.226H27.485C26.88 48.226 26.39 47.736 26.39 47.131M26.39 51.239C26.39 50.634 26.88 50.144 27.485 50.144H42.233A1.095 1.095 0 1 1 42.233 52.334H27.485C26.88 52.334 26.39 51.844 26.39 51.239M26.39 55.345C26.39 54.74 26.88 54.25 27.485 54.25H42.233A1.095 1.095 0 1 1 42.233 56.44H27.485A1.094 1.094 0 0 1 26.39 55.345M26.39 59.453C26.39 58.848 26.88 58.358 27.485 58.358H42.233A1.095 1.095 0 1 1 42.233 60.548H27.485C26.88 60.548 26.39 60.058 26.39 59.453M26.39 63.56C26.39 62.955 26.88 62.465 27.485 62.465H42.233A1.095 1.095 0 1 1 42.233 64.655H27.485C26.88 64.655 26.39 64.165 26.39 63.56M26.39 67.668C26.39 67.063 26.88 66.573 27.485 66.573H42.233A1.095 1.095 0 1 1 42.233 68.763H27.485C26.88 68.763 26.39 68.273 26.39 67.668" fill="white"></path></svg>
                        </g>
                      </svg>
                    </g>
                    <g id="SvgjsG1587">
                      <path d="M25 88.623l-0.977 3.768-1.051-0.382 0-2.198-3.159-1.126-6.641-2.152-6.867-1.887-3.09-0.771-0.572 2.192-1.115-0.172 0.457-4.457 0.797-1.425 3.963 1.432 10.628 3.435 2.987 0.803 3.615 0.826 1.285-2.037 1.022 0.477z" fill="white"></path>
                      <path d="M20.445 59.458l3.693 2.285 2.698 1.714 2.756 1.404 3.302 1.672 1.68-1.727 0.902 0.679-1.954 3.215-1.737 3.483-0.949-0.591 0.456-2.151-2.857-1.756-5.391-2.902-2.986-1.462-1.004 2.03-1.056-0.399 1.371-4.265zM12.991 60.486l-0.679-1.206 0.107-1.58 1.132-1.061 1.772 0.213 0.76 1.41-0.195 1.532-1.369 0.771z" fill="white"></path>
                      <path d="M29.31 34.453l6.409 6.588 0.318-0.002 0.957-3.665 2.32-2.582 4.206-0.687 4.786 2.689 2.796 3.965 0.531 3.66-2.19 4.257-4.726 3.833-1.571 0.036-7.469-7.412-5.285-4.961-2.42-2.071-1.491 1.706-0.921-0.652 2.4-3.783zM36.994 42.247l5.724 5.514 2.329 1.847 3.524-2.375 0.733-3.646-1.912-3.086-3.153-2.805-3.938-0.611-1.705 1.105z" fill="white"></path>
                      <path d="M62.194 17.337l1.218 2.281 0.111-0.066 0.528-2.957 1.372-1.939 2.365-0.71 1.971 4.352-1.07 0.387-2.377-2.412-1.43 1.649-0.581 3.43 1.407 2.656 1.676 2.599 2.014 3.106 3.065-1.095 0.437 1.04-4.049 2.243-3.252 2.138-0.524-0.989 1.476-1.629-1.587-2.955-3.201-5.219-1.845-2.765-1.889 1.25-0.712-0.876 3.33-2.997z" fill="white"></path>
                      <path d="M96.691 6.854l1.901 6.561 1.452 4.262 2.198-0.294 0.076 1.067-4.161 1.59-0.91-1.701-0.153 0.044-2.523 2.678-3.194 0.91-2.584-0.953-1.51-2.825 0.672-2.774 3.226-2.65 4.003-1.307-1.215-3.79-1.119-1.745-2.693 0.011-2.773 1.547 0.84 3.275-1.128 0.591-1.992-3.973 3.231-2.051 3.898-1.308 2.728 0.477zM90.249 17.285l1.533 2.249 2.468-0.071 2.589-2.666-1.305-4.107-2.666 0.759-2.089 1.622z" fill="white"></path>
                      <path d="M121.155 0.7l-0.091 2.584 0.129-0.002 1.941-2.293 2.159-0.989 2.402 0.573-0.478 4.754-1.12-0.203-0.846-3.279-2.064 0.709-2.224 2.676-0.115 3.003 0.145 3.089 0.185 3.697 3.2 0.591-0.143 1.119-4.629-0.091-3.886 0.217 0.044-1.117 2.094-0.67 0.11-3.352-0.151-6.121-0.208-3.317-2.262 0.133-0.176-1.114 4.384-0.923z" fill="white"></path>
                      <path d="M143.312 27.335l-1.623-0.107-0.589-1.646-0.232-2.779 1.28-0.109 1.035 3.016 1.977-1.089 3.483-4.337-1.478-13.515-0.572-2.168-2.06-1.051 0.445-1.037 3.722 1.169 3.7 0.833-0.349 1.063-1.93 0.037-0.052 2.03 0.517 4.705 0.358 5.415 0.096 0.026 2.834-4.42 2.768-3.984 0.84-1.89-1.618-0.891 0.445-1.037 3.26 1.045 2.66 0.552-0.358 1.06-2.025 0.043-1.702 2.019-7.887 11.019-4.028 4.367z" fill="white"></path>
                      <path d="M185.819 39.25l-0.969-0.249 0.062-1.101-1.112-12.399-0.745-7.857 0.255-2.735-0.059-0.039-1.394 2.329-6.258 9.632-1.452 2.291 1.722 1.796-0.813 0.959-2.636-2.093-2.899-1.504 0.754-1.032 2.091 0.753 1.711-2.159 9.186-13.735-1.843-1.958 0.829-0.983 3.087 2.386 1.338 0.869-0.332 2.139 0.958 14.047-0.114 5.098 0.05 0.033 1.642-2.584 5.632-8.85 1.24-2.202-1.655-1.717 0.83-0.984 2.501 2.006 3.117 1.645-0.754 1.032-2.35-0.885-1.454 1.945z" fill="white"></path>
                      <path d="M213.74 52.229l-4.099-4.691-7.157 5.964 5.871 7.104 3.922-1.869 0.472 1.05-3.031 2.55-1.237 1.266-2.136-3.229-5.804-7.373-2.952-3.234 0.915-0.643 2.205 1.512 7.891-5.806 7.144-6.03-0.994-2.504 0.976-0.566 2.258 3.336 5.681 7.216 2.168 2.239-1.408 0.741-3.326 2.53-0.905-0.747 2.817-3.272-4.866-6.6-7.203 5.341 3.997 4.772 2.758-1.397 0.46 1.262-3.049 1.994-2.834 2.638-0.641-1.12z" fill="white"></path>
                      <path d="M236.228 67.122l0.978 3.623 4.122 11.328 1.575 3.396-2.234 0.303-3.841 1.196-0.586-1.346 4.105-2.046-1.634-5.336-10.172 3.393-5.566 2.227-2.644 1.132 0.089 2.578-1.124 0.176-1.03-3.764-1.793-3.995 1.069-0.325 1.615 2.192 3.093-1.094 8.596-2.883 6.721-2.786-2.082-4.876-4.456 1.08-0.417-1.408 3.708-1.561z" fill="white"></path>
                      <path d="M9.17 154.798l-1.347-3.831 1.136-0.274 1.279 1.903 3.387-0.857 7-2.002 7.037-2.357 3.135-1.134-0.785-2.231 1.06-0.491 2.197 4.125 0.143 1.697-4.275 1.056-11.188 3.207-3.051 1.035-3.612 1.385 0.069 2.512-1.162 0.188z" fill="white"></path>
                      <path d="M34.321 171.195l-4.07 1.971-3.016 1.426-2.776 1.636-3.321 1.97 0.584 2.454-1.104 0.412-1.741-3.526-2.1-3.476 1.057-0.5 1.64 1.602 3.142-1.53 5.561-3.13 2.957-1.803-1.224-2.024 0.942-0.71 2.992 3.59zM37.584 164.06l1.44 0.075 1.336 0.984 0.297 1.578-1.177 1.441-1.656-0.115-1.252-1.019 0.089-1.641z" fill="white"></path>
                      <path d="M52.21 181.64l-7.256 6.272-0.003 0.331 3.75 1.224 2.552 2.569 0.455 4.416-3.091 4.821-4.294 2.667-3.854 0.325-4.295-2.532-3.692-5.151 0.044-1.642 8.184-7.322 5.473-5.198 2.317-2.397-1.691-1.654 0.727-0.916 3.802 2.735zM43.625 189.162l-6.079 5.63-2.075 2.306 2.259 3.816 3.757 0.984 3.329-1.801 3.101-3.106 0.888-4.064-1.05-1.846z" fill="white"></path>
                      <path d="M70.005 207.202l-1.505 2.235 0.11 0.068 2.99-0.952 2.453 0.32 1.806 1.829-3.054 3.944-0.879-0.801 1.07-3.362-2.218-0.516-3.447 1.129-1.759 2.595-1.583 2.806-1.889 3.368 2.502 2.297-0.75 0.91-4.039-2.646-3.559-1.958 0.664-0.962 2.223 0.566 1.953-2.897 3.247-5.494 1.657-3.042-2.073-1.139 0.46-1.086 4.388 1.61z" fill="white"></path>
                      <path d="M98.875 222.625l-1.961 6.844-1.089 4.564 2.117 0.969-0.537 0.986-4.544-0.907 0.128-2.009-0.153-0.044-3.718 0.963-3.313-0.964-1.766-2.279 0.241-3.326 2.132-2.08 4.314-0.551 4.257 1.073 1.037-4.029-0.026-2.157-2.38-1.492-3.307-0.163-1.079 3.352-1.32-0.104 0.441-4.618 3.991-0.012 4.172 1.007 2.138 1.931zM87.401 228.258l0.11 2.836 2.215 1.309 3.767-0.919 1.119-4.347-2.776-0.808-2.747 0.27z" fill="white"></path>
                      <path d="M120.702 221.788l-0.187 2.688 0.129 0.003 2.115-2.318 2.284-0.948 2.479 0.682-0.676 4.942-1.161-0.254-0.753-3.447-2.179 0.661-2.422 2.7-0.227 3.127 0.03 3.222 0.046 3.86 3.315 0.74-0.195 1.163-4.821-0.274-4.061 0.082 0.095-1.165 2.208-0.621 0.245-3.485 0.068-6.381-0.084-3.463-2.365 0.049-0.144-1.17 4.605-0.798z" fill="white"></path>
                      <path d="M150.961 243.691l-1.528 0.74-1.372-1.187-1.654-2.38 1.107-0.774 2.493 2.202 1.229-2.002 0.909-5.741-8.33-11.467-1.644-1.672-2.412 0.116-0.129-1.162 3.967-0.873 3.789-1.157 0.225 1.137-1.718 1.037 1.005 1.871 2.898 3.982 3.121 4.718 0.096-0.025 0.291-5.466 0.435-5.031-0.222-2.147-1.912 0.016-0.139-1.16 3.484-0.746 2.699-0.872 0.226 1.137-1.805 1.101-0.497 2.707-1.444 14.055-1.38 6.03z" fill="white"></path>
                      <path d="M195.296 214.385l-0.67 0.821-1.008-0.539-12.258-4.275-7.795-2.668-2.477-1.41-0.059 0.038 1.606 2.323 6.458 10.084 1.556 2.355 2.447-0.857 0.556 1.183-3.116 1.605-2.678 2.106-0.656-1.155 1.621-1.666-1.325-2.549-9.091-14.639-2.661 0.911-0.572-1.208 3.595-1.912 1.394-0.892 1.902 1.232 13.752 5.13 4.792 2.306 0.051-0.032-1.746-2.671-5.983-9.157-1.563-2.126-2.346 0.828-0.573-1.208 2.974-1.513 2.904-2.251 0.656 1.154-1.843 1.856 1.223 2.224z" fill="white"></path>
                      <path d="M209.158 183.02l-3.777 5.277 7.761 5.843 5.805-7.666-2.844-3.536 0.96-0.727 3.311 2.469 1.577 0.948-2.765 2.948-6.083 7.647-2.579 3.771-0.868-0.767 1.002-2.605-7.78-6.621-7.835-5.799-2.3 1.61-0.807-0.859 2.841-3.091 5.965-7.499 1.748-2.725 1.085 1.246 3.367 2.767-0.534 1.104-3.999-2.085-5.529 6.534 7.151 6.019 3.878-5.197-2.082-2.459 1.167-0.779 2.768 2.623 3.35 2.244-0.988 0.921z" fill="white"></path>
                      <path d="M208.034 161.848l1.656-3.545 4.343-11.789 1.035-3.763 1.98 1.261 3.861 1.634-0.434 1.466-4.646-1.148-2.293 5.361 10.385 4.144 5.935 1.974 2.866 0.875 1.668-2.106 1.006 0.615-1.711 3.694-1.267 4.39-1.061-0.465 0.193-2.83-3.205-1.223-8.782-3.479-7.234-2.314-1.628 5.287 4.28 2.14-0.624 1.406-3.999-1.26z" fill="white"></path>
                      <path d="M3.086 119.202c0-5.087 4.123-9.21 9.21-9.21 5.087 0 9.21 4.123 9.21 9.21 0 5.087-4.123 9.21-9.21 9.21-5.087 0-9.21-4.123-9.21-9.21z" fill="white"></path>
                      <path d="M223.689 119.202c0-5.087 4.123-9.21 9.21-9.21 5.087 0 9.21 4.123 9.21 9.21 0 5.087-4.123 9.21-9.21 9.21-5.087 0-9.21-4.123-9.21-9.21z" fill="white"></path>
                    </g>
                    <g id="SvgjsG1586"></g>
                  </svg>
                </g>
              </svg>
            </g>
          </svg>
        </g>
        <defs>
          <mask></mask>
        </defs>
        <mask>
          <g id="SvgjsG1585">
            <svg viewBox="0 0 395.52 140.67564437627877" height="140.67564437627877" width="395.52">
              <g>
                <svg viewBox="0 0 687.2368840807108 244.43135999999998" height="140.67564437627877" width="395.52">
                  <g transform="matrix(1,0,0,1,0,82.15610250740374)">
                    <svg viewBox="0 0 395.52 80.1191549851925" height="80.1191549851925" width="395.52">
                      <g id="SvgjsG1584">
                        <svg viewBox="0 0 395.52 80.1191549851925" height="80.1191549851925" width="395.52" id="SvgjsSvg1583">
                          <g>
                            <svg viewBox="0 0 395.52 80.1191549851925" height="80.1191549851925" width="395.52">
                              <g transform="matrix(1,0,0,1,0,0)">
                                <svg width="395.52" viewBox="0.4000000059604645 -37.79999923706055 253.23001098632812 51.29999923706055" height="80.1191549851925" data-palette-color="url(#d5f52a99-75c2-4011-acba-5ca90df25311)">
                                  <path d="M7 0L0.9 0.25 1-1.5 4.3-2.5 4.55-7.75 4.75-18.7 4.45-29.85 4.2-34.85 0.65-34.7 0.4-36.45 7.3-37.8 9.8-37.25 9.45-30.65 9.15-13.15 9.3-8.3 9.7-2.5 13.35-1.5 13.1 0.25 7 0ZM24.25-24.95L23.9-18.15 23.6-13.15 23.75-8.3 23.95-2.5 27.6-1.5 27.35 0.25 21.45 0 15.35 0.25 15.45-1.5 18.75-2.5 19-7.75 18.9-17.35 18.65-22.55 15.1-22.4 14.85-24.15 21.75-25.5 24.25-24.95ZM17.2-34.4L18.35-36.25 20.6-37.3 22.9-36.55 23.95-33.95 22.6-31.85 20.35-30.95 18.25-32.25 17.2-34.4ZM37.3-37.25L36.7-22.85 37.05-22.5 42.25-25.35 47.7-25.5 53-21.45 55.09-13.1 53.59-5.65 50-1.1 42.8 1 33.34-0.25 31.59-2 32-18.5 31.95-29.85 31.7-34.85 28.14-34.7 27.89-36.45 34.8-37.8 37.3-37.25ZM36.7-20.1L36.59-7.65 37-3 43.5-1.55 48.45-4.65 49.9-10.15 49.7-16.75 46.14-21.9 43.05-22.65 36.7-20.1ZM67.34-24.95L67.14-20.9 67.34-20.9 70.44-24.45 73.84-25.95 77.59-25 76.74-17.55 74.99-17.9 73.74-23.05 70.49-22 66.94-17.85 66.69-13.15 66.84-8.3 67.04-2.5 72.04-1.5 71.79 0.25 64.54 0 58.44 0.25 58.54-1.5 61.84-2.5 62.09-7.75 61.99-17.35 61.74-22.55 58.19-22.4 57.94-24.15 64.84-25.5 67.34-24.95ZM98.99-19.8L99.04-9.1 99.39-2.05 102.84-1.55 102.49 0.1 95.54 0.7 94.89-2.25 94.64-2.25 89.69 0.7 84.49 0.7 80.99-1.85 79.94-6.75 82.14-10.65 88.14-13.25 94.74-13.5 94.54-19.75 93.59-22.85 89.54-24 84.69-22.85 84.54-17.55 82.59-17.15 81.29-24 87.04-25.7 93.49-26 97.39-24.1 98.99-19.8ZM84.79-6.85L86.14-2.8 89.89-1.85 94.94-4.75 94.74-11.5 90.39-11.5 86.54-9.95 84.79-6.85ZM113.69-24.95L113.49-20.9 113.69-20.9 116.79-24.45 120.19-25.95 123.94-25 123.09-17.55 121.34-17.9 120.09-23.05 116.84-22 113.29-17.85 113.04-13.15 113.19-8.3 113.39-2.5 118.39-1.5 118.14 0.25 110.89 0 104.79 0.25 104.89-1.5 108.19-2.5 108.44-7.75 108.34-17.35 108.09-22.55 104.54-22.4 104.29-24.15 111.19-25.5 113.69-24.95ZM133.13 13L130.63 13.5 129.09 11.25 127.59 7.15 129.49 6.45 132.28 10.6 134.84 8.15 138.34 0.15 130.59-19.7 128.84-22.75 125.28-23.5 125.53-25.25 131.63-25 137.59-25.25 137.49-23.5 134.59-22.65 135.34-19.55 138.03-12.65 140.78-4.6 140.94-4.6 143.44-12.45 145.99-19.6 146.49-22.8 143.69-23.5 143.94-25.25 149.28-25 153.53-25.25 153.44-23.5 150.38-22.6 148.63-18.85 141.19 1.05 136.88 9.3 133.13 13ZM186.18 1L184.68 1.5 183.83 0 171.78-15.35 164.08-25.05 162.08-28.85 161.98-28.85 162.13-24.6 162.13-6.6 162.18-2.35 165.98-1.45 165.73 0.5 160.48 0 155.38 0.5 155.48-1.5 158.88-2.3 159.28-6.6 159.63-32.5 155.53-33.5 155.78-35.5 161.88-35 164.38-35 165.78-31.9 179.03-14.25 183.23-7.45 183.33-7.45 183.28-12.25 183.13-28.7 182.88-32.65 179.23-33.5 179.48-35.5 184.48-35 189.98-35.5 189.88-33.5 186.03-32.65 185.78-28.85 186.18 1ZM211.88-17L202.13-16.5 202.53-1.9 216.98-2.25 218.48-8.9 220.23-8.45 220.43-2.25 220.78 0.5 214.73 0 200.03 0 193.18 0.5 193.28-1.25 197.28-2.5 197.78-17.85 197.28-32.5 193.23-33.7 193.48-35.45 199.78-35 214.18-35 219.03-35.5 218.58-33.05 218.48-26.5 216.68-26.1 215.38-32.75 202.53-33.15 202.13-19.1 211.88-19.4 212.83-24.15 214.83-23.5 214.33-17.8 214.83-11.75 212.83-12.05 211.88-17ZM223.03-35.5L228.88-35 247.78-35 253.63-35.5 252.88-32.05 252.58-25.75 250.28-25.6 249.48-32.75 240.73-33.2 240.28-16.4 240.58-7 240.83-2.5 244.68-1.25 244.33 0.5 238.23 0 231.38 0.5 231.48-1.25 235.58-2.45 235.63-7.6 235.98-21.8 235.48-33.2 227.18-32.75 226.38-25.6 224.08-25.75 223.78-32.05 223.03-35.5Z" opacity="1" transform="matrix(1,0,0,1,0,0)" fill="black" class="wordmark-text-0" id="SvgjsPath1582"></path>
                                </svg>
                              </g>
                            </svg>
                          </g>
                        </svg>
                      </g>
                    </svg>
                  </g>
                  <g transform="matrix(1,0,0,1,442.8055240807107,0)">
                    <svg viewBox="0 0 244.43135999999998 244.43135999999998" height="244.43135999999998" width="244.43135999999998">
                      <g>
                        <svg viewBox="0 0 244.43135999999998 244.43135999999998" height="244.43135999999998" width="244.43135999999998">
                          <g transform="matrix(1,0,0,1,71.0882832967632,64.60265593644992)">
                            <svg viewBox="0 0 102.2547934064736 115.22604812710014" height="115.22604812710014" width="102.2547934064736">
                              <g>
                                <svg xmlns="http://www.w3.org/2000/svg" xmlns:xlink="http://www.w3.org/1999/xlink" version="1.1" x="0" y="0" viewBox="10.166999816894531 5 79.83300018310547 89.95999908447266" enable-background="new 0 0 100 100" xml:space="preserve" height="115.22604812710014" width="102.2547934064736" class="icon-b-0" data-fill-palette-color="accent" id="SvgjsSvg1581"><path d="M50.083 5L10.167 32.393V94.96H90V32.393zM87.81 92.77H12.356V33.546L50.083 7.656 87.81 33.546zM40.441 36.252H22.426C21.821 36.252 21.331 36.742 21.331 37.347V77.436C21.331 78.041 21.821 78.531 22.426 78.531H22.854V82.13C22.854 82.735 23.344 83.225 23.949 83.225H45.046A5.164 5.164 0 0 0 50.084 87.286 5.16 5.16 0 0 0 55.12 83.225H76.219C76.824 83.225 77.314 82.735 77.314 82.13V78.531H77.742C78.347 78.531 78.837 78.041 78.837 77.436V37.346C78.837 36.741 78.347 36.251 77.742 36.251H59.725C55.471 36.251 51.82 38.757 50.083 42.353 48.346 38.758 44.696 36.252 40.441 36.252M76.646 76.341H59.725C57.674 76.341 55.518 76.351 53.675 76.79A8.52 8.52 0 0 1 59.725 74.273H76.646zM23.521 38.442H40.442C45.155 38.442 48.989 42.276 48.989 46.989V76.329A10.73 10.73 0 0 0 40.442 72.084H23.521zM23.521 76.341V74.273H40.442C42.804 74.273 44.943 75.236 46.492 76.79 44.649 76.351 42.493 76.341 40.442 76.341zM75.123 81.035H54.142C53.537 81.035 53.047 81.525 53.047 82.13A2.97 2.97 0 0 1 50.083 85.096 2.97 2.97 0 0 1 47.117 82.13C47.117 81.525 46.627 81.035 46.022 81.035H25.043V78.531H40.441C45.715 78.531 48.268 78.83 48.851 81.462 48.923 81.907 48.988 82.355 48.988 82.82A1.095 1.095 0 1 0 51.178 82.82C51.178 82.355 51.243 81.907 51.315 81.462 51.897 78.83 54.451 78.531 59.725 78.531H75.123zM59.725 38.442H76.646V72.084H59.725A10.73 10.73 0 0 0 51.178 76.329V46.988C51.178 42.276 55.012 38.442 59.725 38.442M56.774 43.024C56.774 42.419 57.264 41.929 57.869 41.929H72.617A1.095 1.095 0 1 1 72.617 44.119H57.869C57.264 44.119 56.774 43.629 56.774 43.024M56.774 47.131C56.774 46.526 57.264 46.036 57.869 46.036H72.617A1.095 1.095 0 1 1 72.617 48.226H57.869C57.264 48.226 56.774 47.736 56.774 47.131M56.774 51.239C56.774 50.634 57.264 50.144 57.869 50.144H72.617A1.095 1.095 0 1 1 72.617 52.334H57.869C57.264 52.334 56.774 51.844 56.774 51.239M56.774 55.345C56.774 54.74 57.264 54.25 57.869 54.25H72.617A1.095 1.095 0 1 1 72.617 56.44H57.869A1.094 1.094 0 0 1 56.774 55.345M56.774 59.453C56.774 58.848 57.264 58.358 57.869 58.358H72.617A1.095 1.095 0 1 1 72.617 60.548H57.869C57.264 60.548 56.774 60.058 56.774 59.453M56.774 63.56C56.774 62.955 57.264 62.465 57.869 62.465H72.617A1.095 1.095 0 1 1 72.617 64.655H57.869C57.264 64.655 56.774 64.165 56.774 63.56M56.774 67.668C56.774 67.063 57.264 66.573 57.869 66.573H72.617A1.095 1.095 0 1 1 72.617 68.763H57.869C57.264 68.763 56.774 68.273 56.774 67.668M26.39 43.024C26.39 42.419 26.88 41.929 27.485 41.929H42.233A1.095 1.095 0 1 1 42.233 44.119H27.485C26.88 44.119 26.39 43.629 26.39 43.024M26.39 47.131C26.39 46.526 26.88 46.036 27.485 46.036H42.233A1.095 1.095 0 1 1 42.233 48.226H27.485C26.88 48.226 26.39 47.736 26.39 47.131M26.39 51.239C26.39 50.634 26.88 50.144 27.485 50.144H42.233A1.095 1.095 0 1 1 42.233 52.334H27.485C26.88 52.334 26.39 51.844 26.39 51.239M26.39 55.345C26.39 54.74 26.88 54.25 27.485 54.25H42.233A1.095 1.095 0 1 1 42.233 56.44H27.485A1.094 1.094 0 0 1 26.39 55.345M26.39 59.453C26.39 58.848 26.88 58.358 27.485 58.358H42.233A1.095 1.095 0 1 1 42.233 60.548H27.485C26.88 60.548 26.39 60.058 26.39 59.453M26.39 63.56C26.39 62.955 26.88 62.465 27.485 62.465H42.233A1.095 1.095 0 1 1 42.233 64.655H27.485C26.88 64.655 26.39 64.165 26.39 63.56M26.39 67.668C26.39 67.063 26.88 66.573 27.485 66.573H42.233A1.095 1.095 0 1 1 42.233 68.763H27.485C26.88 68.763 26.39 68.273 26.39 67.668" fill="black"></path></svg>
                              </g>
                            </svg>
                          </g>
                          <g id="SvgjsG1580">
                            <path d="M25 88.623l-0.977 3.768-1.051-0.382 0-2.198-3.159-1.126-6.641-2.152-6.867-1.887-3.09-0.771-0.572 2.192-1.115-0.172 0.457-4.457 0.797-1.425 3.963 1.432 10.628 3.435 2.987 0.803 3.615 0.826 1.285-2.037 1.022 0.477z" fill="black"></path>
                            <path d="M20.445 59.458l3.693 2.285 2.698 1.714 2.756 1.404 3.302 1.672 1.68-1.727 0.902 0.679-1.954 3.215-1.737 3.483-0.949-0.591 0.456-2.151-2.857-1.756-5.391-2.902-2.986-1.462-1.004 2.03-1.056-0.399 1.371-4.265zM12.991 60.486l-0.679-1.206 0.107-1.58 1.132-1.061 1.772 0.213 0.76 1.41-0.195 1.532-1.369 0.771z" fill="black"></path>
                            <path d="M29.31 34.453l6.409 6.588 0.318-0.002 0.957-3.665 2.32-2.582 4.206-0.687 4.786 2.689 2.796 3.965 0.531 3.66-2.19 4.257-4.726 3.833-1.571 0.036-7.469-7.412-5.285-4.961-2.42-2.071-1.491 1.706-0.921-0.652 2.4-3.783zM36.994 42.247l5.724 5.514 2.329 1.847 3.524-2.375 0.733-3.646-1.912-3.086-3.153-2.805-3.938-0.611-1.705 1.105z" fill="black"></path>
                            <path d="M62.194 17.337l1.218 2.281 0.111-0.066 0.528-2.957 1.372-1.939 2.365-0.71 1.971 4.352-1.07 0.387-2.377-2.412-1.43 1.649-0.581 3.43 1.407 2.656 1.676 2.599 2.014 3.106 3.065-1.095 0.437 1.04-4.049 2.243-3.252 2.138-0.524-0.989 1.476-1.629-1.587-2.955-3.201-5.219-1.845-2.765-1.889 1.25-0.712-0.876 3.33-2.997z" fill="black"></path>
                            <path d="M96.691 6.854l1.901 6.561 1.452 4.262 2.198-0.294 0.076 1.067-4.161 1.59-0.91-1.701-0.153 0.044-2.523 2.678-3.194 0.91-2.584-0.953-1.51-2.825 0.672-2.774 3.226-2.65 4.003-1.307-1.215-3.79-1.119-1.745-2.693 0.011-2.773 1.547 0.84 3.275-1.128 0.591-1.992-3.973 3.231-2.051 3.898-1.308 2.728 0.477zM90.249 17.285l1.533 2.249 2.468-0.071 2.589-2.666-1.305-4.107-2.666 0.759-2.089 1.622z" fill="black"></path>
                            <path d="M121.155 0.7l-0.091 2.584 0.129-0.002 1.941-2.293 2.159-0.989 2.402 0.573-0.478 4.754-1.12-0.203-0.846-3.279-2.064 0.709-2.224 2.676-0.115 3.003 0.145 3.089 0.185 3.697 3.2 0.591-0.143 1.119-4.629-0.091-3.886 0.217 0.044-1.117 2.094-0.67 0.11-3.352-0.151-6.121-0.208-3.317-2.262 0.133-0.176-1.114 4.384-0.923z" fill="black"></path>
                            <path d="M143.312 27.335l-1.623-0.107-0.589-1.646-0.232-2.779 1.28-0.109 1.035 3.016 1.977-1.089 3.483-4.337-1.478-13.515-0.572-2.168-2.06-1.051 0.445-1.037 3.722 1.169 3.7 0.833-0.349 1.063-1.93 0.037-0.052 2.03 0.517 4.705 0.358 5.415 0.096 0.026 2.834-4.42 2.768-3.984 0.84-1.89-1.618-0.891 0.445-1.037 3.26 1.045 2.66 0.552-0.358 1.06-2.025 0.043-1.702 2.019-7.887 11.019-4.028 4.367z" fill="black"></path>
                            <path d="M185.819 39.25l-0.969-0.249 0.062-1.101-1.112-12.399-0.745-7.857 0.255-2.735-0.059-0.039-1.394 2.329-6.258 9.632-1.452 2.291 1.722 1.796-0.813 0.959-2.636-2.093-2.899-1.504 0.754-1.032 2.091 0.753 1.711-2.159 9.186-13.735-1.843-1.958 0.829-0.983 3.087 2.386 1.338 0.869-0.332 2.139 0.958 14.047-0.114 5.098 0.05 0.033 1.642-2.584 5.632-8.85 1.24-2.202-1.655-1.717 0.83-0.984 2.501 2.006 3.117 1.645-0.754 1.032-2.35-0.885-1.454 1.945z" fill="black"></path>
                            <path d="M213.74 52.229l-4.099-4.691-7.157 5.964 5.871 7.104 3.922-1.869 0.472 1.05-3.031 2.55-1.237 1.266-2.136-3.229-5.804-7.373-2.952-3.234 0.915-0.643 2.205 1.512 7.891-5.806 7.144-6.03-0.994-2.504 0.976-0.566 2.258 3.336 5.681 7.216 2.168 2.239-1.408 0.741-3.326 2.53-0.905-0.747 2.817-3.272-4.866-6.6-7.203 5.341 3.997 4.772 2.758-1.397 0.46 1.262-3.049 1.994-2.834 2.638-0.641-1.12z" fill="black"></path>
                            <path d="M236.228 67.122l0.978 3.623 4.122 11.328 1.575 3.396-2.234 0.303-3.841 1.196-0.586-1.346 4.105-2.046-1.634-5.336-10.172 3.393-5.566 2.227-2.644 1.132 0.089 2.578-1.124 0.176-1.03-3.764-1.793-3.995 1.069-0.325 1.615 2.192 3.093-1.094 8.596-2.883 6.721-2.786-2.082-4.876-4.456 1.08-0.417-1.408 3.708-1.561z" fill="black"></path>
                            <path d="M9.17 154.798l-1.347-3.831 1.136-0.274 1.279 1.903 3.387-0.857 7-2.002 7.037-2.357 3.135-1.134-0.785-2.231 1.06-0.491 2.197 4.125 0.143 1.697-4.275 1.056-11.188 3.207-3.051 1.035-3.612 1.385 0.069 2.512-1.162 0.188z" fill="black"></path>
                            <path d="M34.321 171.195l-4.07 1.971-3.016 1.426-2.776 1.636-3.321 1.97 0.584 2.454-1.104 0.412-1.741-3.526-2.1-3.476 1.057-0.5 1.64 1.602 3.142-1.53 5.561-3.13 2.957-1.803-1.224-2.024 0.942-0.71 2.992 3.59zM37.584 164.06l1.44 0.075 1.336 0.984 0.297 1.578-1.177 1.441-1.656-0.115-1.252-1.019 0.089-1.641z" fill="black"></path>
                            <path d="M52.21 181.64l-7.256 6.272-0.003 0.331 3.75 1.224 2.552 2.569 0.455 4.416-3.091 4.821-4.294 2.667-3.854 0.325-4.295-2.532-3.692-5.151 0.044-1.642 8.184-7.322 5.473-5.198 2.317-2.397-1.691-1.654 0.727-0.916 3.802 2.735zM43.625 189.162l-6.079 5.63-2.075 2.306 2.259 3.816 3.757 0.984 3.329-1.801 3.101-3.106 0.888-4.064-1.05-1.846z" fill="black"></path>
                            <path d="M70.005 207.202l-1.505 2.235 0.11 0.068 2.99-0.952 2.453 0.32 1.806 1.829-3.054 3.944-0.879-0.801 1.07-3.362-2.218-0.516-3.447 1.129-1.759 2.595-1.583 2.806-1.889 3.368 2.502 2.297-0.75 0.91-4.039-2.646-3.559-1.958 0.664-0.962 2.223 0.566 1.953-2.897 3.247-5.494 1.657-3.042-2.073-1.139 0.46-1.086 4.388 1.61z" fill="black"></path>
                            <path d="M98.875 222.625l-1.961 6.844-1.089 4.564 2.117 0.969-0.537 0.986-4.544-0.907 0.128-2.009-0.153-0.044-3.718 0.963-3.313-0.964-1.766-2.279 0.241-3.326 2.132-2.08 4.314-0.551 4.257 1.073 1.037-4.029-0.026-2.157-2.38-1.492-3.307-0.163-1.079 3.352-1.32-0.104 0.441-4.618 3.991-0.012 4.172 1.007 2.138 1.931zM87.401 228.258l0.11 2.836 2.215 1.309 3.767-0.919 1.119-4.347-2.776-0.808-2.747 0.27z" fill="black"></path>
                            <path d="M120.702 221.788l-0.187 2.688 0.129 0.003 2.115-2.318 2.284-0.948 2.479 0.682-0.676 4.942-1.161-0.254-0.753-3.447-2.179 0.661-2.422 2.7-0.227 3.127 0.03 3.222 0.046 3.86 3.315 0.74-0.195 1.163-4.821-0.274-4.061 0.082 0.095-1.165 2.208-0.621 0.245-3.485 0.068-6.381-0.084-3.463-2.365 0.049-0.144-1.17 4.605-0.798z" fill="black"></path>
                            <path d="M150.961 243.691l-1.528 0.74-1.372-1.187-1.654-2.38 1.107-0.774 2.493 2.202 1.229-2.002 0.909-5.741-8.33-11.467-1.644-1.672-2.412 0.116-0.129-1.162 3.967-0.873 3.789-1.157 0.225 1.137-1.718 1.037 1.005 1.871 2.898 3.982 3.121 4.718 0.096-0.025 0.291-5.466 0.435-5.031-0.222-2.147-1.912 0.016-0.139-1.16 3.484-0.746 2.699-0.872 0.226 1.137-1.805 1.101-0.497 2.707-1.444 14.055-1.38 6.03z" fill="black"></path>
                            <path d="M195.296 214.385l-0.67 0.821-1.008-0.539-12.258-4.275-7.795-2.668-2.477-1.41-0.059 0.038 1.606 2.323 6.458 10.084 1.556 2.355 2.447-0.857 0.556 1.183-3.116 1.605-2.678 2.106-0.656-1.155 1.621-1.666-1.325-2.549-9.091-14.639-2.661 0.911-0.572-1.208 3.595-1.912 1.394-0.892 1.902 1.232 13.752 5.13 4.792 2.306 0.051-0.032-1.746-2.671-5.983-9.157-1.563-2.126-2.346 0.828-0.573-1.208 2.974-1.513 2.904-2.251 0.656 1.154-1.843 1.856 1.223 2.224z" fill="black"></path>
                            <path d="M209.158 183.02l-3.777 5.277 7.761 5.843 5.805-7.666-2.844-3.536 0.96-0.727 3.311 2.469 1.577 0.948-2.765 2.948-6.083 7.647-2.579 3.771-0.868-0.767 1.002-2.605-7.78-6.621-7.835-5.799-2.3 1.61-0.807-0.859 2.841-3.091 5.965-7.499 1.748-2.725 1.085 1.246 3.367 2.767-0.534 1.104-3.999-2.085-5.529 6.534 7.151 6.019 3.878-5.197-2.082-2.459 1.167-0.779 2.768 2.623 3.35 2.244-0.988 0.921z" fill="black"></path>
                            <path d="M208.034 161.848l1.656-3.545 4.343-11.789 1.035-3.763 1.98 1.261 3.861 1.634-0.434 1.466-4.646-1.148-2.293 5.361 10.385 4.144 5.935 1.974 2.866 0.875 1.668-2.106 1.006 0.615-1.711 3.694-1.267 4.39-1.061-0.465 0.193-2.83-3.205-1.223-8.782-3.479-7.234-2.314-1.628 5.287 4.28 2.14-0.624 1.406-3.999-1.26z" fill="black"></path>
                            <path d="M3.086 119.202c0-5.087 4.123-9.21 9.21-9.21 5.087 0 9.21 4.123 9.21 9.21 0 5.087-4.123 9.21-9.21 9.21-5.087 0-9.21-4.123-9.21-9.21z" fill="black"></path>
                            <path d="M223.689 119.202c0-5.087 4.123-9.21 9.21-9.21 5.087 0 9.21 4.123 9.21 9.21 0 5.087-4.123 9.21-9.21 9.21-5.087 0-9.21-4.123-9.21-9.21z" fill="black"></path>
                          </g>
                          <g id="SvgjsG1579"></g>
                        </svg>
                      </g>
                    </svg>
                  </g>
                </svg>
              </g>
              <defs>
                <mask></mask>
              </defs>
            </svg>
            <rect width="395.52" height="140.67564437627877" fill="black" stroke="none" visibility="hidden"></rect>
          </g>
        </mask>
      </svg>
      <rect width="395.52" height="140.67564437627877" fill="black" stroke="none" visibility="hidden"></rect>
    </g>
  </mask>
  <linearGradient x1="0.054" x2="0.941" y1="0.5" y2="0.5" id="f70fe78c-8307-4f74-8943-2c15cce480a4">
    <stop stop-color="#8c8c8c" offset="0"></stop>
    <stop stop-color="#e3e4e5" offset="0.498"></stop>
    <stop stop-color="#8c8c8c" offset="1"></stop>
  </linearGradient>
  <rect width="395.5199890136719" height="140.67564392089844" fill="url(#f70fe78c-8307-4f74-8943-2c15cce480a4)" mask="url(#f5dba657-f145-45fa-91a8-4d92e055016f)" data-fill-palette-color="accent"></rect>
</svg>