<?xml version="1.0" encoding="utf-8"?><!-- Uploaded to: SVG Repo, www.svgrepo.com, Generator: SVG Repo Mixer Tools -->
<svg fill="#000000" width="800px" height="800px" viewBox="0 0 24 24" id="desk-3" data-name="Flat Color" xmlns="http://www.w3.org/2000/svg" class="icon flat-color"><path id="secondary" d="M19,19a1,1,0,0,1-1-1V10a1,1,0,0,1,2,0v8A1,1,0,0,1,19,19ZM5,19a1,1,0,0,1-1-1V10a1,1,0,0,1,2,0v8A1,1,0,0,1,5,19Z" style="fill: rgb(44, 169, 188);"></path><path id="primary" d="M20,5H4A1,1,0,0,0,3,6V9a2,2,0,0,0,2,2H19a2,2,0,0,0,2-2V6A1,1,0,0,0,20,5Z" style="fill: rgb(0, 0, 0);"></path><path id="secondary-2" data-name="secondary" d="M21,7H3A1,1,0,0,1,3,5H21a1,1,0,0,1,0,2Z" style="fill: rgb(44, 169, 188);"></path></svg>