<?xml version="1.0" encoding="utf-8"?><!-- Uploaded to: SVG Repo, www.svgrepo.com, Generator: SVG Repo Mixer Tools -->
<svg fill="#000000" width="800px" height="800px" viewBox="0 0 24 24" id="music-folder-3" data-name="Flat Line" xmlns="http://www.w3.org/2000/svg" class="icon flat-line"><path id="secondary" d="M18,19a2,2,0,1,1-2-2A2,2,0,0,1,18,19ZM9,7l2,2h8V4a1,1,0,0,0-1-1H6A1,1,0,0,0,5,4V7Z" style="fill: rgb(44, 169, 188); stroke-width: 2;"></path><path id="primary" d="M21,16a2.9,2.9,0,0,0-3-3v6" style="fill: none; stroke: rgb(0, 0, 0); stroke-linecap: round; stroke-linejoin: round; stroke-width: 2;"></path><path id="primary-2" data-name="primary" d="M18,19a2,2,0,1,1-2-2A2,2,0,0,1,18,19ZM9,7l2,2h8V4a1,1,0,0,0-1-1H6A1,1,0,0,0,5,4V7Z" style="fill: none; stroke: rgb(0, 0, 0); stroke-linecap: round; stroke-linejoin: round; stroke-width: 2;"></path><path id="primary-3" data-name="primary" d="M10,21H4a1,1,0,0,1-1-1V8A1,1,0,0,1,4,7H9l2,2h9" style="fill: none; stroke: rgb(0, 0, 0); stroke-linecap: round; stroke-linejoin: round; stroke-width: 2;"></path></svg>